# xmcd CD database file
#
# Track frame offsets:
#	183
#	22603
#	40520
#	59903
#	76123
#	100998
#	125508
#	143095
#	186083
#	217073
#
# Disc length: 3348 seconds
#
# Revision: 2
# Processed by: cddbd v1.5.2PL0 Copyright (c) Steve Scherf et al.
# Submitted via: CDex 1.70beta2
#
DISCID=830d120a
DTITLE=John Mayall and the Bluesbreakers - Unknown CD for MusicBrainz and FreeDB
DYEAR=1900
DGENRE=Blues
TTITLE0=Hard Times Again
TTITLE1=You Never Can Be Trusted
TTITLE2=Howlin Moon
TTITLE3=Ridin' On The Santa Fe
TTITLE4=I Should Know Better
TTITLE5=My Time After Awhile
TTITLE6=She Can Do It
TTITLE7=Lookin' For Willie
TTITLE8=Room To Move
TTITLE9=Have You Heard
EXTD=
EXTT0=
EXTT1=
EXTT2=
EXTT3=
EXTT4=
EXTT5=
EXTT6=
EXTT7=
EXTT8=
EXTT9=
PLAYORDER=
